<svg id="Layer_1" data-name="Layer 1" xmlns="http://www.w3.org/2000/svg" viewBox="0 0 32 32"><defs><style>.cls-1{fill:#70b2e1;}.cls-2{fill:#bdddf4;}.cls-3{fill:#f9f9fa;}.cls-4{fill:#202815;}.cls-5{fill:#e02126;}.cls-6{fill:#fff;}</style></defs><title>Icon thẻ RFID</title><rect class="cls-1" x="0.00907" y="3.26884" width="27.69011" height="18.74743" rx="2.21865"/><rect class="cls-2" x="0.00882" y="6.57497" width="27.68961" height="4.42153"/><path class="cls-3" d="M12.33781,19.09385q-1.42962,0-2.85925-.00053c-.356-.0006-.40393-.04931-.40529-.40574-.00194-.50695.00766-1.0141-.00379-1.5208-.00585-.25866.0995-.37591.35468-.37578q2.90487.00145,5.80976-.00008c.24815-.00012.37069.10306.36552.36745-.01029.527-.00858,1.0545-.0007,1.58162.004.26443-.11841.35779-.37127.35624C14.26428,19.0903,13.301,19.09384,12.33781,19.09385Z"/><path class="cls-4" d="M5.12434,18.64241c.46645,0,.933-.00421,1.39934.00147.33528.00408.538.1783.54026.44692a.473.473,0,0,1-.5313.462q-1.42969.01035-2.85951-.001c-.34179-.00315-.52164-.183-.51619-.4676s.18354-.43641.53763-.44044C4.1711,18.63829,4.64774,18.64237,5.12434,18.64241Z"/><circle class="cls-5" cx="25.94111" cy="22.0082" r="6.05851"/><path class="cls-6" d="M27.44289,24.11736a.74829.74829,0,0,1-.58529-.23765c-.23885-.2378-.48623-.46793-.71234-.71732-.154-.16985-.26126-.15-.40667.00828-.22779.248-.4679.48565-.71442.7152a.67659.67659,0,1,1-.94563-.96148c.231-.24524.46675-.48732.71611-.71348.16941-.15364.151-.26126-.0076-.40692-.248-.22774-.4854-.46808-.71567-.714a.6767.6767,0,1,1,.95988-.94762c.24572.23046.48757.46649.71378.7158.15283.16843.26021.15388.40668-.00586.22757-.24818.46808-.48539.714-.7156a.6769.6769,0,1,1,.9482.95986c-.23.24616-.46626.48779-.71555.714-.169.15331-.15134.25963.00676.40669.26709.24845.52518.508.77082.77764a.6739.6739,0,0,1-.43307,1.12241Z"/></svg>