<svg id="Layer_1" data-name="Layer 1" xmlns="http://www.w3.org/2000/svg" viewBox="0 0 32 32"><defs><style>.cls-1{fill:#e0e0e0;}.cls-2{fill:#70b2e1;}.cls-3{fill:#bdddf4;}.cls-4{fill:#f3eb2f;}.cls-5{fill:#579fd7;}.cls-6{fill:#94c7ec;}.cls-7{fill:#eadc31;}.cls-8{fill:#767676;}.cls-9{fill:#616262;}.cls-10{fill:#f9f9fa;}.cls-11{fill:#202815;}</style></defs><title>Untitled-2</title><path class="cls-1" d="M30.33294,17.68673H29.228c-.12842-.14724-.08811-.32816-.0933-.49823a21.64006,21.64006,0,0,0-.04344-2.21977,3.74778,3.74778,0,0,0-1.56157-2.62781,3.65472,3.65472,0,0,0-2.70807-.63588,3.787,3.787,0,0,0-3.21306,3.66876c-.01106.62737,0,1.25506-.00338,1.88259a.58022.58022,0,0,1-.092.43073l-1.10479-.00005c.00107-.813-.03706-1.62846.01106-2.43861a4.88,4.88,0,0,1,2.59618-4.19025,3.71293,3.71293,0,0,1,1.79294-.55322.48423.48423,0,0,0,.15306-.05868.30057.30057,0,0,1,.24449-.09892,4.86957,4.86957,0,0,1,2.15748.40773.62881.62881,0,0,1,.21028.17135,5.90791,5.90791,0,0,1,1.82343,1.60406,4.90235,4.90235,0,0,1,.92967,2.75031C30.35022,16.08217,30.33249,16.88472,30.33294,17.68673Z"/><path class="cls-2" d="M.02476,18.5756.02148,10.9979c.17259-.15874.38808-.118.59021-.11824q3.35415-.00451,6.70831-.00184,7.51676,0,15.0335.00151a1.24236,1.24236,0,0,1,.6398.07787c.1128.21962-.10162.24764-.20444.31575a4.844,4.844,0,0,0-2.26046,3.639c-.08254.739-.01244,1.488-.02553,2.2323-.003.16807.03391.34732-.09667.492a1.02893,1.02893,0,0,1-.504.07043,1.00635,1.00635,0,0,0-1.04191,1.046c-.01572.40067.00065.80208-.00659,1.203-.00284.157.02208.32574-.11952.44815a1.051,1.051,0,0,1-.50634.0653q-7.94605.00179-15.8921.00057A2.33927,2.33927,0,0,1,.2682,19.38893,1.99012,1.99012,0,0,1,.02476,18.5756Z"/><path class="cls-3" d="M23.01559,11.0491c-.08286-.09173-.193-.0571-.292-.05711Q11.44129,10.98986.159,10.99122c-.04585,0-.09171.00433-.13754.00666q.00011-2.2121.00018-4.42423A.9119.9119,0,0,1,.65182,6.47Q6.9862,6.46549,13.3206,6.4678q5.42211,0,10.84421.00157a1.18993,1.18993,0,0,1,.63964.08213.65318.65318,0,0,1,.12189.51531c.00446.91118.00207,1.82239.00174,2.73359a2.64105,2.64105,0,0,0,.045.57735c.027.16-.08525.20179-.20246.21009a4.35675,4.35675,0,0,0-1.59445.46667A.14586.14586,0,0,1,23.01559,11.0491Z"/><path class="cls-4" d="M18.74452,20.36265q.00571-.77026.01136-1.54052a1.1091,1.1091,0,0,1,1.208-1.21716c.14821-.00122.29638-.007.44458-.01073.41409-.00164.732.0216,1.1041-.00164,1.09666-.01456,2.20352-.10451,3.30011-.08951.91135-.01184,1.8326.07545,2.74383.09244a4.29852,4.29852,0,0,1,.84443.041c.69764.27316.92935.50907.93054,1.24384.00376,2.305.00846,4.61-.00136,6.915a2.30245,2.30245,0,0,1-2.3968,2.38442q-2.94141.01348-5.88291-.00087a2.30193,2.30193,0,0,1-2.05447-1.104,2.03848,2.03848,0,0,1-.22934-.78256q-.00532-1.91662-.01109-3.83326c-.0005-.14815-.00706-.29627-.01081-.4444A2.94983,2.94983,0,0,1,18.74452,20.36265Z"/><path class="cls-2" d="M24.81814,6.59242c-.16054-.00388-.32108-.01114-.48162-.01116Q12.40282,6.58044.46911,6.58048c-.14917,0-.29833-.00443-.44748-.00682A7.48269,7.48269,0,0,1,.07945,4.96221a2.16837,2.16837,0,0,1,2.08624-1.685q10.34877-.00806,20.69756-.00278a.95836.95836,0,0,1,.10253.0107,2.12071,2.12071,0,0,1,1.94347,2.17859,3.63476,3.63476,0,0,1-.0502,1.08856Z"/><path class="cls-5" d="M18.74452,20.36265l.00016,1.65212q-8.22939.00018-16.45874,0a2.17443,2.17443,0,0,1-2.27113-2.269c-.00019-.39007.00644-.78014.00994-1.1702A2.32414,2.32414,0,0,0,1.805,20.329a1.86628,1.86628,0,0,0,.44373.03141Q10.49664,20.36284,18.74452,20.36265Z"/><path class="cls-6" d="M27.5739,10.91907a5.7847,5.7847,0,0,0-2.61229-.47415c-.20563-.0426-.13928-.20864-.13975-.33156-.00452-1.17368-.00329-2.34738-.00372-3.521l.00221-.023a.52009.52009,0,0,1,.35345-.09657q1.02107-.00731,2.04216.0006a.47.47,0,0,1,.35017.1016Z"/><path class="cls-7" d="M18.77928,26.26606a2.31693,2.31693,0,0,0,1.35779,1.613,2.23126,2.23126,0,0,0,.83125.17233q3.0294.00221,6.05881-.00005a2.21077,2.21077,0,0,0,2.21416-2.23148c.00216-2.295-.01492-4.59018.01042-6.88491.0073-.661-2.11869-1.03813-2.71461-1.2896.29077-.0909,2.42761-.022,2.70531-.044.3677.02258.67067.01529,1.1093.00879.18343.00383.356.01484.5395.01759A1.04456,1.04456,0,0,1,31.9969,18.693q.00357,4.44259-.00114,8.88518a2.16725,2.16725,0,0,1-2.1375,2.12582q-4.477.00784-8.95405-.00009a2.17537,2.17537,0,0,1-2.13427-2.12966C18.76653,27.13821,18.77579,26.70211,18.77928,26.26606Z"/><path class="cls-5" d="M27.56613,6.57493q-1.37289-.00272-2.74579-.00554a9.0053,9.0053,0,0,0-.03908-1.47114,2.20636,2.20636,0,0,0-1.81549-1.81317c.87179-.00321,1.74409-.02651,2.61522-.00434A2.1848,2.1848,0,0,1,27.5702,5.2676C27.58691,5.70269,27.56856,6.13912,27.56613,6.57493Z"/><path class="cls-2" d="M21.5132,17.5943a26.1514,26.1514,0,0,1,.06575-2.88383A3.821,3.821,0,0,1,24.81883,11.609a.57094.57094,0,0,1,.11064.45233q.00555,2.53941.00029,5.07883a.58979.58979,0,0,1-.10914.4538Z"/><path class="cls-5" d="M24.82062,17.59391l-.00178-5.985a3.52744,3.52744,0,0,1,2.406.41188c.1214.06243.23508.13984.35233.21033a.87825.87825,0,0,1,.11055.49344q-.00042,2.20855-.002,4.41711a.585.585,0,0,1-.11045.45228Z"/><path class="cls-8" d="M25.85,20.99173a1.6234,1.6234,0,0,1,.65481,2.75345.40878.40878,0,0,0-.113.48074c.1963.633.36381,1.27485.55535,1.90939.06284.20816.06026.30341-.20478.295-.64088-.02027-1.28265-.01252-1.92406-.01607-.09011-.124-.0155-.24327.016-.36013.14918-.5531.29847-1.10683.4732-1.65188a.67653.67653,0,0,0-.15786-.74325,1.684,1.684,0,0,1,.35444-2.52174A.9309.9309,0,0,1,25.85,20.99173Z"/><path class="cls-9" d="M25.85,20.99173c-.16744.18848-.40968.27662-.58507.46439a1.57361,1.57361,0,0,0-.00258,2.19542.57877.57877,0,0,1,.15771.69251c-.22182.68319-.40371,1.37933-.60171,2.07024-.29722.00349-.59464.00167-.89159.01254-.17531.00641-.211-.04214-.15793-.21728.19815-.65434.37418-1.31535.56938-1.97063a.4119.4119,0,0,0-.12956-.4973,1.64146,1.64146,0,0,1-.2583-2.0428A1.62,1.62,0,0,1,25.85,20.99173Z"/><path class="cls-7" d="M29.05183,17.59651l1.597.0215.07428.15247-.30493.09773c-.04887.01564-.72911-.00391-.73888,0s-.28343-.03323-.28343-.03323l-.31862-.1251-.041-.07819.002-.01368"/><path class="cls-10" d="M12.33068,19.09917q-1.42963,0-2.85926-.00053c-.356-.0006-.40393-.04931-.40529-.40574-.00193-.507.00767-1.0141-.00379-1.5208-.00584-.25866.09951-.37591.35468-.37578q2.90488.00145,5.80976-.00009c.24816-.00011.37069.10307.36553.36746-.01029.527-.00858,1.0545-.00071,1.58162.00395.26442-.1184.35779-.37127.35624C14.25715,19.09562,13.2939,19.09916,12.33068,19.09917Z"/><path class="cls-11" d="M5.1172,18.64773c.46646,0,.933-.00421,1.39935.00147.33527.00408.538.1783.54026.44692a.473.473,0,0,1-.5313.462q-1.42971.01035-2.85951-.001c-.3418-.00315-.52165-.18295-.51619-.4676s.18354-.43641.53762-.44044C4.164,18.64361,4.64061,18.64769,5.1172,18.64773Z"/></svg>