<?xml version="1.0" standalone="no"?><!DOCTYPE svg PUBLIC "-//W3C//DTD SVG 1.1//EN" "http://www.w3.org/Graphics/SVG/1.1/DTD/svg11.dtd"><svg class="icon" height="512" viewBox="0 0 1024 1024" version="1.1" xmlns="http://www.w3.org/2000/svg"><path d="M631.07072 532.94592c20.44928 4.8896 12.65152 4.25472 31.62112 9.96352 159.79008 48.06656 268.47744 111.2064 268.47744 218.60864 0 134.73792-108.89728 240.13824-412.01664 240.13824-249.80992 0-441.74848-77.28128-441.74848-239.41632 0-125.78304 129.01376-186.1632 285.99808-226.16064 15.91296-4.04992 9.64608-2.9696 26.496-6.65088 1.57696 1.55136 36.71552 30.62784 36.71552 30.62784-149.23264 17.0496-306.88256 81.14688-306.88256 202.57792 0 127.06304 200.43264 194.8928 390.53824 194.8928 191.27808 0 378.58816-43.87328 378.58816-190.03904 0-113.50016-137.92768-188.81024-291.37408-207.04768C598.50752 559.72864 629.86752 534.08256 631.07072 532.94592zM518.25152 591.5648c89.08288-3.74272 220.26752-142.65344 220.26752-296.77056 0-163.9424-75.35104-269.31712-222.06976-266.20928C346.2656 32.18944 287.16544 130.85696 287.16544 294.79424c0 142.32064 121.12384 298.95168 231.53664 296.84736 1.48992-0.03072-5.6576-44.19072-6.58432-44.19584-81.14176-0.48128-169.87648-106.624-172.57984-192.00512-1.5616-49.37216-41.76896-125.30688 16.4096-130.21696 106.98752-9.02656 112.512-69.61664 151.48544-69.61664 40.45824 0 41.37984 49.07008 121.74848 63.29856 104.36096 18.46784 77.84448 112.50176 60.60032 156.89728-39.22944 100.92544-107.83232 169.82528-177.77664 171.60704C511.08352 547.4304 516.736 591.63136 518.25152 591.5648zM712.78592 693.08416l44.0832 0 0 175.55456-44.0832 0L712.78592 693.08416zM647.3216 758.94784l175.49824-0.27136 0 44.30336L647.3216 802.97984 647.3216 758.94784zM477.48096 616.97536l65.42848 0c0 0 17.9712-18.02752 18.59584 8.82688 0.46592 19.96288-27.56096 22.44096-24.36608 38.21056 10.74688 53.01248 34.14528 131.91168 34.14528 131.91168s47.56992-165.77536 46.97088-216.1408c-0.19456-16.65024 18.87744-28.35456 22.72256-6.72256 5.3504 30.04928-3.99872 100.98688-4.4032 103.296-26.22976 150.09792-125.9776 275.65056-125.9776 275.65056S400.9984 839.36768 389.4272 656.78848c-0.10752-1.66912 1.05984-99.1488 4.28032-92.53376 4.06528 8.34048 28.96384 5.72928 27.85792 33.98656-2.82624 72.32 22.02624 177.98144 22.02624 177.98144s17.9968-68.16256 28.03712-115.328c2.95424-13.85984-11.55072-27.35104-13.73696-35.1488C447.39584 588.24192 477.48096 616.97536 477.48096 616.97536z" /></svg>