<?xml version="1.0" encoding="utf-8"?>
<!-- Generator: Adobe Illustrator 22.0.1, SVG Export Plug-In . SVG Version: 6.00 Build 0)  -->
<svg version="1.1" id="Layer_1" xmlns="http://www.w3.org/2000/svg" xmlns:xlink="http://www.w3.org/1999/xlink" x="0px" y="0px"
	 viewBox="0 0 20 20" style="enable-background:new 0 0 20 20;" xml:space="preserve">
<style type="text/css">
	.st0{fill:#FFFFFF;}
</style>
<g>
	<g>
		<path class="st0" d="M18.1,20c0,0-0.1,0-0.1,0c-3.5-0.1-6.9-0.2-10.4-0.2c-2.3-0.1-4.6-0.1-6.8-0.2c-0.3,0-0.6-0.3-0.7-0.6
			c0-0.1,0-0.2,0-0.3V3.7C0.1,3.3,0.3,3,0.7,3h6.6C7.4,3,7.6,3,7.7,3.2l11.5,0.2c0.3,0,0.5,0.2,0.6,0.5c0.1,0.2,0.1,0.3,0.2,0.5
			C20,4.6,20.1,4.7,20.1,5c0,1.6,0,3.3,0,4.9c0,2.6,0,5.2,0,7.9c0,0.7-0.2,1.3-0.5,1.7C19.2,19.9,18.5,20,18.1,20z M1.3,18.3
			c2.1,0,4.2,0.1,6.3,0.1c3.5,0.1,6.9,0.2,10.4,0.2c0.5,0,0.7-0.1,0.8-0.2c0.1-0.1,0.1-0.4,0.1-0.7c0-2.6,0-5.3,0-7.9
			c0-1.6,0-3.3,0-4.9c0,0,0-0.1-0.1-0.2c0,0,0,0,0-0.1L7.6,4.5c-0.2,0-0.3-0.1-0.4-0.2H1.3L1.3,18.3L1.3,18.3z"/>
	</g>
	<g>
		<path class="st0" d="M13.1,4.3c-0.3,0-0.6-0.3-0.6-0.7V1.4H8v2.3C8,4,7.8,4.3,7.4,4.3S6.8,4,6.8,3.7v-3C6.8,0.3,7.1,0,7.4,0h5.7
			c0.3,0,0.6,0.3,0.6,0.7v3C13.7,4,13.5,4.3,13.1,4.3z"/>
	</g>
	<g>
		<path class="st0" d="M11.4,16.1H9.2c-0.3,0-0.6-0.3-0.6-0.7v-1.7l-1.8-0.3c-0.3-0.1-0.5-0.3-0.5-0.7V9.8c0-0.4,0.3-0.7,0.6-0.7
			h1.5L9,6.9c0.1-0.3,0.4-0.5,0.6-0.4c0,0,0.1,0,0.1,0h1.7c0.3,0,0.6,0.3,0.6,0.7v2h2c0.2,0,0.3,0.1,0.4,0.2
			c0.1,0.1,0.2,0.3,0.2,0.5l-0.2,2.7c0,0.3-0.3,0.6-0.6,0.6h-1.5L12,15.5C11.9,15.9,11.7,16.1,11.4,16.1z M9.8,14.7h1.1l0.4-2.4
			c0.1-0.3,0.3-0.5,0.6-0.5h1.4l0.1-1.3h-2c-0.3,0-0.6-0.3-0.6-0.7v-2H10L9.4,10c-0.1,0.3-0.3,0.5-0.6,0.5H7.5v1.6l1.8,0.3
			c0.3,0.1,0.5,0.3,0.5,0.7L9.8,14.7L9.8,14.7z"/>
	</g>
</g>
</svg>
