<?xml version="1.0" encoding="utf-8"?>
<!-- Generator: Adobe Illustrator 22.0.1, SVG Export Plug-In . SVG Version: 6.00 Build 0)  -->
<svg version="1.1" id="Слой_1" xmlns="http://www.w3.org/2000/svg" xmlns:xlink="http://www.w3.org/1999/xlink" x="0px" y="0px"
	 viewBox="0 0 26 26" style="enable-background:new 0 0 26 26;" xml:space="preserve">
<style type="text/css">
	.st0{fill:#FFFFFF;}
</style>
<path class="st0" d="M14.1,13L24.8,2.3c0.3-0.3,0.3-0.8,0-1.1s-0.8-0.3-1.1,0L13,11.9L2.3,1.2C2,0.9,1.5,0.9,1.2,1.2S0.9,2,1.2,2.3
	L11.9,13L1.2,23.7c-0.3,0.3-0.3,0.8,0,1.1C1.4,24.9,1.6,25,1.8,25s0.4-0.1,0.5-0.2L13,14.1l10.7,10.7c0.1,0.1,0.3,0.2,0.5,0.2
	s0.4-0.1,0.5-0.2c0.3-0.3,0.3-0.8,0-1.1L14.1,13z"/>
</svg>
